<?xml version="1.0" encoding="UTF-8"?>
<svg width="22px" height="22px" viewBox="0 0 22 22" version="1.1" xmlns="http://www.w3.org/2000/svg" xmlns:xlink="http://www.w3.org/1999/xlink">
    <title>72D0901A-AED1-43BE-BDCF-21D57C211AC2</title>
    <g id="website" stroke="none" stroke-width="1" fill="none" fill-rule="evenodd">
        <g id="PropertyHit-landing-page-DESKTOP" transform="translate(-392.000000, -1127.000000)" fill="#C7A663" fill-rule="nonzero">
            <g id="BENEFITS" transform="translate(392.000000, 1122.000000)">
                <path d="M11,27 C13.0096154,27 14.869391,26.4975962 16.5793269,25.4927885 C18.2363782,24.5408654 19.5408654,23.2363782 20.4927885,21.5793269 C21.4975962,19.869391 22,18.0096154 22,16 C22,13.9903846 21.4975962,12.130609 20.4927885,10.4206731 C19.5408654,8.76362179 18.2363782,7.45913462 16.5793269,6.50721154 C14.869391,5.50240385 13.0096154,5 11,5 C9.00801282,5 7.15705128,5.50240385 5.44711538,6.50721154 C3.7900641,7.47676282 2.47676282,8.7900641 1.50721154,10.4471154 C0.502403846,12.1570513 0,14.0080128 0,16 C0,17.9919872 0.502403846,19.8429487 1.50721154,21.5528846 C2.45913462,23.2099359 3.76362179,24.5232372 5.42067308,25.4927885 C7.13060897,26.4975962 8.99038462,27 11,27 Z M11,24.8317308 C9.41346154,24.8317308 7.93269231,24.4262821 6.55769231,23.6153846 C5.21794872,22.8397436 4.16025641,21.7820513 3.38461538,20.4423077 C2.57371795,19.0673077 2.16826923,17.5865385 2.16826923,16 C2.16826923,14.4134615 2.57371795,12.9326923 3.38461538,11.5576923 C4.16025641,10.2179487 5.21794872,9.16025641 6.55769231,8.38461538 C7.93269231,7.57371795 9.41346154,7.16826923 11,7.16826923 C12.5865385,7.16826923 14.0673077,7.57371795 15.4423077,8.38461538 C16.7820513,9.16025641 17.8397436,10.2179487 18.6153846,11.5576923 C19.4262821,12.9326923 19.8317308,14.4134615 19.8317308,16 C19.8317308,17.5865385 19.4262821,19.0673077 18.6153846,20.4423077 C17.8397436,21.7820513 16.7820513,22.8397436 15.4423077,23.6153846 C14.0673077,24.4262821 12.5865385,24.8317308 11,24.8317308 Z M11,19.3052885 C11.5817308,19.3052885 12.1282051,19.1554487 12.6394231,18.8557692 C13.150641,18.5560897 13.5560897,18.150641 13.8557692,17.6394231 C14.1554487,17.1282051 14.3052885,16.5817308 14.3052885,16 C14.3052885,15.4182692 14.1554487,14.8717949 13.8557692,14.3605769 C13.5560897,13.849359 13.150641,13.4439103 12.6394231,13.1442308 C12.1282051,12.8445513 11.5817308,12.6947115 11,12.6947115 C10.4182692,12.6947115 9.87179487,12.8445513 9.36057692,13.1442308 C8.84935897,13.4439103 8.44391026,13.849359 8.14423077,14.3605769 C7.84455128,14.8717949 7.69471154,15.4182692 7.69471154,16 C7.69471154,16.5817308 7.84455128,17.1282051 8.14423077,17.6394231 C8.44391026,18.150641 8.84935897,18.5560897 9.36057692,18.8557692 C9.87179487,19.1554487 10.4182692,19.3052885 11,19.3052885 Z" id=""></path>
            </g>
        </g>
    </g>
</svg>