<svg xmlns="http://www.w3.org/2000/svg" width="184" height="41" viewBox="0 0 184 41">
    <g fill="none" fill-rule="evenodd">
        <g fill-rule="nonzero">
            <g>
                <g>
                    <g>
                        <g>
                            <path fill="#39B54A" d="M53.922 35.667L0 35.667 7.263 18.067 0 0 53.922 0 61.185 18.267z" transform="translate(-39 -24) translate(28 12) translate(11 12) translate(0 5) translate(122.335)"/>
                            <path fill="#48C153" d="M7.263 18.067L0 0 53.922 0 61.185 18.267z" transform="translate(-39 -24) translate(28 12) translate(11 12) translate(0 5) translate(122.335)"/>
                            <g fill="#FFF">
                                <path d="M.548.6L3.631.6 3.631 7.267 11.648 7.267 11.648.6 14.731.6 14.731 16.267 11.648 16.267 11.648 9.933 3.631 9.933 3.631 16.267.548 16.267zM19.185.6L22.268.6 22.268 16.267 19.185 16.267zM24.803.6L37.89.6 37.89 3.267 32.888 3.267 32.888 16.267 29.805 16.267 29.805 3.2 24.803 3.2z" transform="translate(-39 -24) translate(28 12) translate(11 12) translate(0 5) translate(122.335) translate(12.539 10)"/>
                            </g>
                        </g>
                        <g fill="#FFF">
                            <path d="M10.738 1.492c1.088.908 1.631 2.14 1.631 3.762 0 1.687-.543 2.984-1.63 3.957-1.088.908-2.651 1.427-4.622 1.427H2.175v4.735H0V.195h6.185c1.97 0 3.466.389 4.553 1.297zM9.175 7.914c.748-.584 1.088-1.428 1.088-2.53 0-1.103-.34-1.881-1.088-2.465-.747-.584-1.767-.843-3.126-.843H2.175v6.68h3.874c1.36 0 2.446-.259 3.126-.842zM25.622 15.373l-3.194-4.735c-.34 0-.68.065-.883.065h-4.078v4.735h-2.175V.195h6.253c2.038 0 3.602.454 4.69 1.362 1.087.908 1.63 2.14 1.63 3.827 0 1.232-.272 2.27-.883 3.113-.612.844-1.496 1.427-2.583 1.817l3.738 5.124h-2.515v-.065zm-4.077-6.616c1.359 0 2.446-.26 3.126-.843.748-.584 1.087-1.428 1.087-2.53 0-1.103-.34-1.881-1.087-2.465-.748-.584-1.767-.843-3.126-.843h-4.078v6.68h4.078zM42.953 1.038c1.292.713 2.311 1.621 3.059 2.789.747 1.168 1.087 2.465 1.087 3.892s-.34 2.724-1.087 3.957c-.748 1.167-1.767 2.14-3.059 2.854-1.291.713-2.718 1.038-4.214 1.038-1.495 0-2.922-.39-4.213-1.038-1.292-.714-2.311-1.622-3.059-2.854-.747-1.168-1.087-2.53-1.087-3.957s.34-2.724 1.087-3.892c.748-1.168 1.767-2.14 3.059-2.79C35.817.39 37.244 0 38.739 0c1.564.065 2.923.39 4.214 1.038zm-7.272 1.621c-.951.52-1.699 1.233-2.243 2.141-.543.908-.883 1.881-.883 2.984 0 1.102.272 2.075.815 2.984.544.908 1.292 1.621 2.243 2.14.952.519 1.971.778 3.058.778 1.088 0 2.107-.259 3.059-.778.951-.519 1.699-1.232 2.243-2.14.543-.909.815-1.882.815-2.984 0-1.103-.272-2.076-.815-2.92-.544-.907-1.292-1.62-2.243-2.14-.952-.519-1.971-.778-3.059-.778-1.087 0-2.038.195-2.99.713zM61.032 1.492c1.087.908 1.63 2.14 1.63 3.762 0 1.687-.543 2.984-1.63 3.957-1.088.908-2.651 1.427-4.622 1.427h-3.942v4.735h-2.175V.195h6.185c1.971 0 3.466.389 4.554 1.297zm-1.564 6.422c.748-.584 1.088-1.428 1.088-2.53 0-1.103-.34-1.881-1.088-2.465-.747-.584-1.767-.843-3.126-.843h-3.874v6.68h3.874c1.36 0 2.379-.259 3.126-.842zM65.585.195L76.663.195 76.663 2.076 67.76 2.076 67.76 6.746 75.712 6.746 75.712 8.627 67.76 8.627 67.76 13.492 76.935 13.492 76.935 15.373 65.585 15.373 65.585.195zM90.732 15.373l-3.126-4.735c-.34 0-.68.065-.884.065h-4.078v4.735H80.47V.195h6.253c2.039 0 3.602.454 4.69 1.362 1.087.908 1.63 2.14 1.63 3.827 0 1.232-.271 2.27-.883 3.113-.612.844-1.495 1.427-2.582 1.817l3.738 5.124h-2.583v-.065zm-4.01-6.616c1.36 0 2.447-.26 3.126-.843.748-.584 1.088-1.428 1.088-2.53 0-1.103-.34-1.881-1.088-2.465-.747-.584-1.767-.843-3.126-.843h-4.078v6.68h4.078zM94.878.195L107.315.195 107.315 2.141 102.15 2.141 102.15 15.438 99.975 15.438 99.975 2.076 94.878 2.076 94.878.195zM121.859.195L115.879 10.184 115.879 15.373 113.704 15.373 113.704 10.249 107.655.13 109.898.13 114.791 7.914 119.617.13 121.859.13z" transform="translate(-39 -24) translate(28 12) translate(11 12) translate(0 5) translate(0 10.703)"/>
                        </g>
                    </g>
                    <path fill="#FFF" d="M1.148 9V6.288h2.268c1.04 0 1.844-.252 2.412-.756.568-.504.852-1.216.852-2.136 0-.888-.284-1.574-.852-2.058C5.26.854 4.456.612 3.416.612H.32V9h.828zM3.38 5.544H1.148V1.356H3.38c.808 0 1.428.176 1.86.528.432.352.648.864.648 1.536 0 .688-.218 1.214-.654 1.578-.436.364-1.054.546-1.854.546zm7.332 3.48c.608 0 1.152-.134 1.632-.402s.856-.644 1.128-1.128c.272-.484.408-1.034.408-1.65 0-.608-.136-1.152-.408-1.632-.272-.48-.648-.854-1.128-1.122-.48-.268-1.024-.402-1.632-.402-.608 0-1.152.134-1.632.402s-.856.642-1.128 1.122c-.272.48-.408 1.024-.408 1.632 0 .616.136 1.166.408 1.65.272.484.648.86 1.128 1.128.48.268 1.024.402 1.632.402zm0-.684c-.456 0-.864-.104-1.224-.312-.36-.208-.64-.5-.84-.876-.2-.376-.3-.808-.3-1.296 0-.48.1-.908.3-1.284.2-.376.48-.668.84-.876.36-.208.768-.312 1.224-.312.456 0 .864.104 1.224.312.36.208.64.5.84.876.2.376.3.804.3 1.284 0 .488-.1.92-.3 1.296-.2.376-.48.668-.84.876-.36.208-.768.312-1.224.312zm6.96.66l1.92-5.316L21.512 9h.84l2.352-6.288h-.84l-1.92 5.484-1.92-5.484h-.852l-1.908 5.484-1.932-5.484h-.864L16.832 9h.84zm10.656.024c.512 0 .982-.09 1.41-.27.428-.18.794-.434 1.098-.762l-.456-.456c-.248.264-.544.468-.888.612-.344.144-.716.216-1.116.216-.648 0-1.192-.206-1.632-.618-.44-.412-.688-.954-.744-1.626h5.244c.04-1.048-.196-1.882-.708-2.502-.512-.62-1.256-.93-2.232-.93-.592 0-1.124.134-1.596.402s-.842.644-1.11 1.128c-.268.484-.402 1.03-.402 1.638 0 .616.134 1.164.402 1.644s.638.854 1.11 1.122c.472.268 1.012.402 1.62.402zm2.196-3.528H26c.064-.648.308-1.168.732-1.56.424-.392.952-.588 1.584-.588.64 0 1.158.194 1.554.582.396.388.614.91.654 1.566zM33.728 9V5.64c.056-.68.286-1.218.69-1.614.404-.396.938-.59 1.602-.582v-.756c-.544.008-1.01.138-1.398.39-.388.252-.686.618-.894 1.098V2.712h-.804V9h.804zm6.06.024c.512 0 .982-.09 1.41-.27.428-.18.794-.434 1.098-.762l-.456-.456c-.248.264-.544.468-.888.612-.344.144-.716.216-1.116.216-.648 0-1.192-.206-1.632-.618-.44-.412-.688-.954-.744-1.626h5.244c.04-1.048-.196-1.882-.708-2.502-.512-.62-1.256-.93-2.232-.93-.592 0-1.124.134-1.596.402s-.842.644-1.11 1.128c-.268.484-.402 1.03-.402 1.638 0 .616.134 1.164.402 1.644s.638.854 1.11 1.122c.472.268 1.012.402 1.62.402zm2.196-3.528H37.46c.064-.648.308-1.168.732-1.56.424-.392.952-.588 1.584-.588.64 0 1.158.194 1.554.582.396.388.614.91.654 1.566zm4.8 3.552c.576 0 1.08-.13 1.512-.39.432-.26.768-.626 1.008-1.098V9h.804V.096h-.804v4.068c-.24-.472-.578-.84-1.014-1.104-.436-.264-.942-.396-1.518-.396-.584 0-1.106.136-1.566.408-.46.272-.82.648-1.08 1.128-.26.48-.39 1.028-.39 1.644 0 .616.128 1.168.384 1.656s.616.868 1.08 1.14c.464.272.992.408 1.584.408zm.144-.696c-.456 0-.866-.106-1.23-.318-.364-.212-.648-.506-.852-.882-.204-.376-.306-.804-.306-1.284s.104-.91.312-1.29c.208-.38.492-.678.852-.894.36-.216.768-.324 1.224-.324.456 0 .864.108 1.224.324.36.216.642.514.846.894.204.38.306.81.306 1.29s-.102.908-.306 1.284c-.204.376-.486.67-.846.882-.36.212-.768.318-1.224.318zM59.516 9c.952 0 1.696-.2 2.232-.6.536-.4.804-.96.804-1.68 0-.576-.172-1.052-.516-1.428-.344-.376-.824-.604-1.44-.684.496-.104.882-.324 1.158-.66.276-.336.414-.752.414-1.248 0-.656-.238-1.17-.714-1.542C60.978.786 60.32.6 59.48.6h-3.516V9h3.552zm-.072-4.692h-2.652V1.356h2.652c.592-.008 1.052.116 1.38.372.328.256.492.616.492 1.08 0 .48-.164.85-.492 1.11-.328.26-.788.39-1.38.39zm0 3.948h-2.652V5.04h2.652c.712 0 1.268.14 1.668.42.4.28.6.672.6 1.176 0 .512-.198.91-.594 1.194-.396.284-.954.426-1.674.426zm5.028 3.108c.408 0 .77-.124 1.086-.372.316-.248.57-.612.762-1.092l2.904-7.188h-.828l-2.076 5.4-2.16-5.4h-.852l2.604 6.252-.264.648c-.136.32-.308.564-.516.732-.208.168-.44.252-.696.252-.32 0-.62-.096-.9-.288l-.36.624c.376.288.808.432 1.296.432z" transform="translate(-39 -24) translate(28 12) translate(11 12)"/>
                </g>
            </g>
        </g>
    </g>
</svg>
